<svg xmlns="http://www.w3.org/2000/svg" viewBox="0 0 64 64"><g data-name="30-tree"><path style="fill:#9a6948" d="m35.22 48.9-.81-11.15-.88-12.18-1.21-16.6L32.03 5l-.29 3.98-.8 10.96L30 32.97l-1.02 13.99L28.03 60v3l3-2 1 2 1-2 3 2v-3l-.81-11.1z"/><path d="M42.09 45.47a1.835 1.835 0 0 1-.06-.47 2.112 2.112 0 0 1 .02-.26 1.994 1.994 0 0 1 0-3.48 2.112 2.112 0 0 1-.02-.26 2 2 0 0 1 2-2 2.053 2.053 0 0 1 1.12.34 1.989 1.989 0 0 1 3.76 0 2.028 2.028 0 0 1 1.12-.34 2.006 2.006 0 0 1 2 2 2.061 2.061 0 0 1-.03.26 1.985 1.985 0 0 1 0 3.48 2.061 2.061 0 0 1 .03.26 2.006 2.006 0 0 1-2 2 2.028 2.028 0 0 1-1.12-.34 1.989 1.989 0 0 1-3.76 0 2.053 2.053 0 0 1-1.12.34 1.986 1.986 0 0 1-1.94-1.53zM38.98 34.7a1.991 1.991 0 0 1-.95-1.7 2.112 2.112 0 0 1 .02-.26 1.994 1.994 0 0 1 0-3.48 2.112 2.112 0 0 1-.02-.26 2 2 0 0 1 2-2 2.053 2.053 0 0 1 1.12.34 1.989 1.989 0 0 1 3.76 0 2.028 2.028 0 0 1 1.12-.34 2.006 2.006 0 0 1 2 2 2.061 2.061 0 0 1-.03.26 1.985 1.985 0 0 1 0 3.48 2.061 2.061 0 0 1 .03.26 2.006 2.006 0 0 1-2 2 2.028 2.028 0 0 1-1.12-.34 1.989 1.989 0 0 1-3.76 0 2.053 2.053 0 0 1-1.12.34 2.006 2.006 0 0 1-1.05-.3zM37.71 21.99a1.571 1.571 0 0 1-.85-1.39 1.492 1.492 0 0 1 .02-.21 1.562 1.562 0 0 1 0-2.78 1.492 1.492 0 0 1-.02-.21 1.64 1.64 0 0 1 1.67-1.6 1.744 1.744 0 0 1 .93.27 1.679 1.679 0 0 1 3.13 0 1.753 1.753 0 0 1 .94-.27 1.631 1.631 0 0 1 1.66 1.6 1.492 1.492 0 0 1-.02.21 1.553 1.553 0 0 1 0 2.78 1.492 1.492 0 0 1 .02.21 1.631 1.631 0 0 1-1.66 1.6 1.753 1.753 0 0 1-.94-.27 1.679 1.679 0 0 1-3.13 0 1.744 1.744 0 0 1-.93.27 1.722 1.722 0 0 1-.82-.21zM36.17 3.61a1.553 1.553 0 0 1 0 2.78 1.492 1.492 0 0 1 .02.21 1.631 1.631 0 0 1-1.66 1.6 1.753 1.753 0 0 1-.94-.27 1.627 1.627 0 0 1-1.27 1.04L32.03 5l-.29 3.98a1.65 1.65 0 0 1-1.28-1.05 1.744 1.744 0 0 1-.93.27 1.64 1.64 0 0 1-1.67-1.6 1.492 1.492 0 0 1 .02-.21 1.562 1.562 0 0 1 0-2.78 1.492 1.492 0 0 1-.02-.21 1.64 1.64 0 0 1 1.67-1.6 1.744 1.744 0 0 1 .93.27 1.679 1.679 0 0 1 3.13 0 1.753 1.753 0 0 1 .94-.27 1.631 1.631 0 0 1 1.66 1.6 1.492 1.492 0 0 1-.02.21zM27.01 17.13a1.507 1.507 0 0 1-.48.07 1.753 1.753 0 0 1-.94-.27 1.679 1.679 0 0 1-3.13 0 1.744 1.744 0 0 1-.93.27 1.64 1.64 0 0 1-1.67-1.6 1.492 1.492 0 0 1 .02-.21 1.562 1.562 0 0 1 0-2.78 1.492 1.492 0 0 1-.02-.21 1.64 1.64 0 0 1 1.67-1.6 1.744 1.744 0 0 1 .93.27 1.679 1.679 0 0 1 3.13 0 1.753 1.753 0 0 1 .94-.27 1.631 1.631 0 0 1 1.66 1.6 1.492 1.492 0 0 1-.02.21 1.553 1.553 0 0 1 0 2.78 1.492 1.492 0 0 1 .02.21 1.614 1.614 0 0 1-1.18 1.53zM26.14 29.67a2.023 2.023 0 0 1-2.23-.01 1.989 1.989 0 0 1-3.76 0 2.053 2.053 0 0 1-1.12.34 2 2 0 0 1-2-2 2.112 2.112 0 0 1 .02-.26 1.994 1.994 0 0 1 0-3.48 2.112 2.112 0 0 1-.02-.26 2 2 0 0 1 2-2 2.053 2.053 0 0 1 1.12.34 1.989 1.989 0 0 1 3.76 0 2.028 2.028 0 0 1 1.12-.34 2.006 2.006 0 0 1 2 2 2.061 2.061 0 0 1-.03.26 1.985 1.985 0 0 1 0 3.48 1.859 1.859 0 0 1-.86 1.93zM25.14 43.67a2.023 2.023 0 0 1-2.23-.01 1.989 1.989 0 0 1-3.76 0 2.053 2.053 0 0 1-1.12.34 2 2 0 0 1-2-2 2.112 2.112 0 0 1 .02-.26 1.994 1.994 0 0 1 0-3.48 2.112 2.112 0 0 1-.02-.26 2 2 0 0 1 2-2 2.053 2.053 0 0 1 1.12.34 1.989 1.989 0 0 1 3.76 0 2.028 2.028 0 0 1 1.12-.34 2.006 2.006 0 0 1 2 2 2.061 2.061 0 0 1-.03.26 1.985 1.985 0 0 1 0 3.48 1.859 1.859 0 0 1-.86 1.93z" style="fill:#5cb34f"/><path d="M49.03 31A2.007 2.007 0 0 0 48 29.26a2.061 2.061 0 0 0 .03-.26 2.006 2.006 0 0 0-2-2 2.028 2.028 0 0 0-1.12.34 1.989 1.989 0 0 0-3.76 0 2.053 2.053 0 0 0-1.12-.34 2 2 0 0 0-2 2 2.112 2.112 0 0 0 .02.26 2.021 2.021 0 0 0-.82.908 1.993 1.993 0 0 1 .8-.168 2.053 2.053 0 0 1 1.12.34 1.989 1.989 0 0 1 3.76 0 2.028 2.028 0 0 1 1.12-.34 2.006 2.006 0 0 1 2 2 2.061 2.061 0 0 1-.03.26A2.007 2.007 0 0 1 47.03 34a1.933 1.933 0 0 1-.2.831A2 2 0 0 0 48.03 33a2.061 2.061 0 0 0-.03-.26A2.007 2.007 0 0 0 49.03 31zM53.03 43A2.007 2.007 0 0 0 52 41.26a2.061 2.061 0 0 0 .03-.26 2.006 2.006 0 0 0-2-2 2.028 2.028 0 0 0-1.12.34 1.989 1.989 0 0 0-3.76 0 2.053 2.053 0 0 0-1.12-.34 2 2 0 0 0-2 2 2.112 2.112 0 0 0 .02.26 2.021 2.021 0 0 0-.82.908 1.993 1.993 0 0 1 .8-.168 2.053 2.053 0 0 1 1.12.34 1.989 1.989 0 0 1 3.76 0 2.028 2.028 0 0 1 1.12-.34 2.006 2.006 0 0 1 2 2 2.061 2.061 0 0 1-.03.26A2.007 2.007 0 0 1 51.03 46a1.933 1.933 0 0 1-.2.831A2 2 0 0 0 52.03 45a2.061 2.061 0 0 0-.03-.26A2.007 2.007 0 0 0 53.03 43zM46.03 19a1.58 1.58 0 0 0-.86-1.39 1.492 1.492 0 0 0 .02-.21 1.631 1.631 0 0 0-1.66-1.6 1.753 1.753 0 0 0-.94.27 1.679 1.679 0 0 0-3.13 0 1.744 1.744 0 0 0-.93-.27 1.64 1.64 0 0 0-1.67 1.6 1.492 1.492 0 0 0 .02.21 1.653 1.653 0 0 0-.282.2 1.75 1.75 0 0 1 .862.26 1.679 1.679 0 0 1 3.13 0 1.753 1.753 0 0 1 .94-.27 1.631 1.631 0 0 1 1.66 1.6 1.492 1.492 0 0 1-.02.21 1.58 1.58 0 0 1 .86 1.39 1.543 1.543 0 0 1-.576 1.189c.027 0 .05.011.076.011a1.631 1.631 0 0 0 1.66-1.6 1.492 1.492 0 0 0-.02-.21 1.58 1.58 0 0 0 .86-1.39zM37.03 5a1.58 1.58 0 0 0-.86-1.39 1.492 1.492 0 0 0 .02-.21 1.631 1.631 0 0 0-1.66-1.6 1.753 1.753 0 0 0-.94.27 1.679 1.679 0 0 0-3.13 0 1.744 1.744 0 0 0-.93-.27 1.64 1.64 0 0 0-1.67 1.6 1.492 1.492 0 0 0 .02.21 1.562 1.562 0 0 0 0 2.78 1.492 1.492 0 0 0-.02.21 1.519 1.519 0 0 0 .174.7A1.788 1.788 0 0 1 28 7a1.649 1.649 0 0 1 .683-1.39 1.649 1.649 0 0 1-.016-.21 1.491 1.491 0 0 1 1.341-1.6 1.206 1.206 0 0 1 .746.27 1.273 1.273 0 0 1 2.514 0 1.21 1.21 0 0 1 .755-.27 1.485 1.485 0 0 1 1.332 1.6 1.855 1.855 0 0 1-.016.21A1.655 1.655 0 0 1 36.03 7a1.861 1.861 0 0 1-.04.346 1.542 1.542 0 0 0 .2-.746 1.492 1.492 0 0 0-.02-.21A1.58 1.58 0 0 0 37.03 5zM21.03 16a1.571 1.571 0 0 1 .85-1.39 1.492 1.492 0 0 1-.02-.21 1.64 1.64 0 0 1 1.67-1.6 1.744 1.744 0 0 1 .93.27 1.679 1.679 0 0 1 3.13 0 1.758 1.758 0 0 1 .864-.259 1.635 1.635 0 0 0-.284-.2 1.492 1.492 0 0 0 .02-.21 1.631 1.631 0 0 0-1.66-1.6 1.753 1.753 0 0 0-.94.27 1.679 1.679 0 0 0-3.13 0 1.744 1.744 0 0 0-.93-.27 1.64 1.64 0 0 0-1.67 1.6 1.492 1.492 0 0 0 .02.21 1.562 1.562 0 0 0 0 2.78 1.492 1.492 0 0 0-.02.21 1.64 1.64 0 0 0 1.67 1.6c.024 0 .045-.009.068-.01A1.547 1.547 0 0 1 21.03 16zM18.03 28a2 2 0 0 1 1.02-1.74 2.112 2.112 0 0 1-.02-.26 2 2 0 0 1 2-2 2.053 2.053 0 0 1 1.12.34 1.989 1.989 0 0 1 3.76 0 2.028 2.028 0 0 1 1.12-.34 2.006 2.006 0 0 0-2-2 2.028 2.028 0 0 0-1.12.34 1.989 1.989 0 0 0-3.76 0 2.053 2.053 0 0 0-1.12-.34 2 2 0 0 0-2 2 2.112 2.112 0 0 0 .02.26 1.994 1.994 0 0 0 0 3.48 2.112 2.112 0 0 0-.02.26 2 2 0 0 0 2 2 2.112 2.112 0 0 1 .02-.26A2 2 0 0 1 18.03 28zM17.03 42a2 2 0 0 1 1.02-1.74 2.112 2.112 0 0 1-.02-.26 2 2 0 0 1 2-2 2.053 2.053 0 0 1 1.12.34 1.989 1.989 0 0 1 3.76 0 2.028 2.028 0 0 1 1.12-.34 2.006 2.006 0 0 0-2-2 2.028 2.028 0 0 0-1.12.34 1.989 1.989 0 0 0-3.76 0 2.053 2.053 0 0 0-1.12-.34 2 2 0 0 0-2 2 2.112 2.112 0 0 0 .02.26 1.994 1.994 0 0 0 0 3.48 2.112 2.112 0 0 0-.02.26 2 2 0 0 0 2 2 2.112 2.112 0 0 1 .02-.26A2 2 0 0 1 17.03 42z" style="fill:#8ee05b"/><path style="fill:#785238" d="m33 58-1 1-1-1-1 1 2-54-.29 3.98-.8 10.96-.94 13.03-1.02 13.99L28 60v3l3-2 1 2 1-2 3 2v-3l-.141-1.93L34 59l-1-1z"/><path d="M34.155 58.922a62.025 62.025 0 0 0-.629-10.151c-.21-1.775-.425-3.611-.553-5.417-.247-3.516-.169-7.118-.093-10.6a79.072 79.072 0 0 0-.68-15.488.249.249 0 0 0-.29-.2.251.251 0 0 0-.2.291 78.677 78.677 0 0 1 .674 15.389c-.076 3.494-.155 7.108.095 10.647.128 1.817.344 3.659.555 5.44a63.144 63.144 0 0 1 .637 9.837L34 59z" style="fill:#d99465"/><path d="M31.774 50.164a67.193 67.193 0 0 1-.142-8.6c.042-.59.1-1.18.155-1.771.047-.48.093-.961.131-1.442.072-.927.12-1.937.145-3.088a82.888 82.888 0 0 0-.714-12.672L31.222 26a81.756 81.756 0 0 1 .341 9.254 55.248 55.248 0 0 1-.143 3.061 85.65 85.65 0 0 1-.13 1.433 63.125 63.125 0 0 0-.156 1.784 67.41 67.41 0 0 0 .141 8.665 69.773 69.773 0 0 1 .144 8.226l.472.472a66.951 66.951 0 0 0-.117-8.731z" style="fill:#d99465"/><path d="M50.03 42.5h-2.691l-.861-1.724a.5.5 0 0 0-.9.448l.776 1.552-11.173 5.585.039.539.04.543L47.148 43.5h2.882a.5.5 0 0 0 0-1zM34.451 38.32l8.731-5.82h1.848a.5.5 0 0 0 0-1h-1.5V29a.5.5 0 0 0-1 0v2.732l-8.162 5.442.042.576zM33.575 26.192l6.641-5.692h2.814a.5.5 0 0 0 0-1h-2.191l.639-1.276a.5.5 0 0 0-.9-.448l-.955 1.91-6.143 5.266.045.618zM29.025 46.34l-6.564-5.629-.956-2.869a.5.5 0 1 0-.949.316l.78 2.342H18.03a.5.5 0 0 0 0 1h3.815l6.822 5.85.05.04a.445.445 0 0 0 .225.092l.038-.522zM30.045 32.35l-6.515-5.58V24a.5.5 0 0 0-1 0v2.306l-2.342-.781a.5.5 0 0 0-.316.95l2.907.968L30 34v-1.03zM30.983 19.352l-6.317-4.505.812-1.623a.5.5 0 0 0-.9-.448l-.776 1.553-1.553-.776a.5.5 0 1 0-.447.894l1.932.96 6.925 4.95.09.06a.487.487 0 0 0 .148.045l.038-.522z" style="fill:#9a6948"/></g></svg>